<?xml version="1.0" standalone="no"?>
<!DOCTYPE svg PUBLIC "-//W3C//DTD SVG 20010904//EN"
 "http://www.w3.org/TR/2001/REC-SVG-20010904/DTD/svg10.dtd">
<svg version="1.0" xmlns="http://www.w3.org/2000/svg"
 width="1024.000000pt" height="1024.000000pt" viewBox="0 0 1024.000000 1024.000000"
 preserveAspectRatio="xMidYMid meet">
<metadata>
Created by potrace 1.14, written by Peter Selinger 2001-2017
</metadata>
<g transform="translate(0.000000,1024.000000) scale(0.100000,-0.100000)"
fill="#000000" stroke="none">
<path d="M380 10106 c-104 -34 -177 -99 -224 -196 -28 -58 -31 -75 -31 -151 1
-78 4 -94 35 -153 40 -79 92 -129 180 -169 l65 -30 212 -1 c182 -1 213 -3 214
-16 3 -41 4 -2497 1 -2506 -2 -7 -32 -26 -68 -44 -124 -64 -233 -200 -270
-340 -15 -59 -17 -141 -17 -845 0 -704 2 -786 17 -844 40 -150 141 -275 281
-348 45 -23 66 -30 140 -48 31 -8 153 -8 164 0 7 3 11 -4 12 -17 2 -30 2 -24
-5 -88 -3 -30 -8 -86 -12 -125 -3 -38 -7 -86 -9 -105 -2 -19 -6 -66 -10 -105
-3 -38 -8 -90 -10 -115 -3 -25 -8 -76 -11 -115 -3 -38 -7 -88 -10 -110 -2 -22
-6 -71 -9 -110 -3 -38 -8 -83 -10 -100 -2 -16 -7 -66 -10 -110 -4 -44 -8 -93
-10 -110 -3 -32 -14 -150 -21 -227 -2 -27 -6 -69 -8 -95 -3 -27 -8 -82 -11
-123 -4 -41 -8 -86 -10 -100 -2 -14 -6 -65 -10 -114 -4 -49 -8 -101 -10 -115
-2 -14 -6 -64 -10 -111 -3 -47 -8 -96 -10 -110 -2 -14 -6 -59 -10 -100 -3 -41
-8 -91 -10 -110 -2 -19 -7 -73 -11 -119 -3 -47 -7 -92 -9 -101 -2 -10 -6 -62
-10 -116 -4 -55 -8 -103 -9 -108 0 -4 89 -50 199 -100 110 -51 245 -113 299
-139 54 -26 100 -47 102 -47 2 0 45 -20 96 -44 150 -71 242 -113 448 -208 107
-50 285 -132 395 -183 110 -51 232 -107 270 -125 195 -90 337 -156 405 -187
41 -20 104 -49 140 -65 36 -17 99 -46 140 -65 41 -20 161 -75 265 -123 105
-48 220 -102 257 -119 l66 -31 244 0 244 0 -2 118 c-2 134 -13 421 -19 478 -2
22 -6 71 -10 110 -4 40 -8 92 -10 115 -5 71 -15 162 -21 191 -3 14 -7 46 -10
70 -9 74 -11 91 -22 158 -6 36 -14 85 -17 110 -3 25 -10 61 -15 80 -5 19 -12
51 -15 70 -3 19 -8 42 -10 50 -2 8 -7 31 -10 50 -25 146 -178 684 -224 785 -5
11 -17 43 -27 70 -9 28 -28 74 -41 103 -12 29 -23 55 -23 57 0 20 -162 351
-239 490 -241 430 -545 805 -896 1106 -449 385 -981 646 -1510 743 -73 14 -90
17 -93 21 -6 6 -3 4297 3 4304 4 3 178 6 388 7 364 1 385 2 442 23 32 11 75
34 95 49 212 171 177 489 -68 609 l-57 28 -790 1 c-576 1 -799 -1 -825 -10z"/>
<path d="M5198 10115 c-1 -1 -52 -6 -113 -9 -60 -3 -126 -8 -145 -10 -19 -3
-60 -7 -90 -10 -279 -31 -452 -62 -705 -127 -295 -75 -548 -170 -805 -301 -85
-43 -162 -83 -170 -88 -8 -5 -60 -37 -115 -71 -89 -56 -245 -165 -307 -217
-211 -176 -342 -310 -511 -522 -121 -150 -298 -450 -377 -640 -18 -41 -38 -88
-45 -105 -14 -32 -89 -247 -98 -280 -3 -11 -17 -63 -32 -115 -28 -102 -80
-354 -89 -435 -4 -27 -11 -84 -16 -125 -5 -41 -10 -93 -10 -115 l0 -40 3898 1
c2143 1 3903 2 3910 3 13 1 12 31 -3 146 -2 17 -7 57 -10 90 -4 33 -9 62 -10
65 -2 3 -6 30 -10 60 -4 30 -8 57 -10 60 -2 3 -6 23 -9 45 -10 63 -61 271 -94
377 -128 417 -341 811 -611 1128 -72 84 -269 281 -346 345 -430 361 -930 606
-1530 751 -59 14 -115 27 -124 29 -9 2 -50 10 -91 18 -41 9 -95 18 -120 22
-25 3 -70 10 -100 15 -30 5 -81 12 -113 15 -32 4 -67 8 -77 10 -11 2 -61 7
-112 11 -51 3 -102 8 -113 11 -23 5 -691 13 -697 8z m1558 -1564 c75 -38 205
-83 269 -95 17 -3 44 -8 60 -12 63 -13 283 -11 366 3 158 27 322 92 444 177
33 23 65 45 72 49 16 10 8 -117 -12 -196 -66 -257 -304 -454 -594 -491 -238
-30 -462 43 -620 203 -70 71 -79 82 -118 156 -41 79 -69 183 -72 268 l-2 69
64 -46 c35 -25 100 -63 143 -85z"/>
<path d="M1550 6010 c0 -164 2 -180 18 -181 9 0 24 -2 33 -4 14 -2 106 -19
282 -50 15 -3 39 -7 55 -10 44 -8 204 -36 237 -41 17 -3 37 -7 45 -9 8 -2 83
-16 165 -30 83 -14 175 -30 205 -36 30 -5 71 -12 90 -15 19 -3 42 -7 50 -9 8
-3 32 -7 54 -11 21 -3 48 -8 60 -10 17 -3 113 -20 224 -39 12 -2 30 -6 40 -9
9 -3 35 -7 57 -10 22 -3 67 -10 100 -16 33 -6 85 -15 115 -20 30 -6 66 -12 80
-15 28 -6 36 -7 165 -29 50 -9 101 -18 115 -21 36 -7 259 -46 295 -51 17 -3
50 -9 75 -14 40 -9 174 -33 255 -46 17 -3 66 -12 110 -19 44 -8 94 -17 110
-19 87 -14 161 -30 170 -37 7 -5 10 -873 9 -2573 l-1 -2566 714 0 713 0 0
2570 c0 2048 3 2571 13 2575 11 4 43 10 112 20 17 3 41 7 55 10 14 3 77 14
140 25 63 12 124 22 135 24 11 2 36 7 55 10 19 3 96 17 170 30 74 14 151 27
170 30 19 3 49 8 65 11 17 3 66 12 110 20 44 8 94 17 110 20 17 3 44 8 60 11
17 3 57 10 90 16 33 5 71 12 85 14 14 3 48 9 75 14 61 12 99 18 145 26 27 4
233 41 385 68 21 4 69 12 120 21 17 3 68 12 115 21 83 15 225 40 285 50 79 13
255 45 300 54 28 5 79 14 115 20 36 6 76 13 90 16 14 3 41 7 60 10 19 3 62 11
95 17 l60 13 1 177 0 177 -3928 0 -3928 0 0 -180z"/>
<path d="M9716 5083 c-1 -1 -20 -5 -42 -8 -160 -24 -429 -105 -639 -193 -75
-31 -280 -135 -344 -174 -34 -21 -65 -38 -67 -38 -2 0 -58 -37 -125 -81 -457
-306 -854 -729 -1161 -1238 -89 -147 -193 -346 -258 -491 -28 -63 -55 -124
-60 -135 -38 -82 -133 -350 -190 -535 -58 -189 -150 -577 -166 -700 -2 -19 -8
-57 -14 -85 -5 -27 -12 -68 -15 -90 -3 -23 -7 -50 -9 -60 -2 -11 -7 -49 -11
-85 -4 -36 -8 -74 -10 -85 -1 -11 -5 -49 -9 -85 -4 -36 -9 -81 -11 -100 -4
-32 -11 -126 -21 -269 -2 -31 -6 -158 -10 -284 l-6 -227 245 0 245 0 103 49
c57 27 154 71 214 99 61 28 155 71 210 97 55 26 123 57 150 70 28 12 82 37
120 55 134 62 491 228 615 285 69 32 172 80 229 106 57 27 105 49 107 49 1 0
52 23 111 51 102 48 142 67 296 138 34 16 127 59 207 96 80 37 174 81 210 97
36 17 97 45 135 63 39 18 97 45 130 60 33 15 102 47 153 71 l93 43 -6 53 c-3
29 -8 76 -11 103 -2 28 -6 70 -9 95 -3 25 -7 68 -10 95 -3 28 -7 70 -10 95 -2
25 -7 70 -9 100 -11 114 -17 176 -21 210 -2 19 -7 64 -10 100 -3 36 -8 79 -10
95 -2 17 -6 64 -10 105 -4 41 -8 86 -10 100 -2 14 -7 61 -11 105 -3 44 -8 87
-9 96 -2 8 -6 53 -10 100 -4 46 -8 91 -10 100 -2 9 -6 52 -10 95 -4 43 -8 89
-10 102 -2 12 -7 62 -11 110 -3 48 -8 95 -9 104 -2 9 -7 48 -10 85 -4 37 -8
82 -10 98 -2 17 -6 62 -10 100 -3 39 -8 84 -10 100 -2 17 -7 66 -11 110 -3 44
-8 87 -9 96 -2 8 -6 53 -10 100 -4 46 -8 91 -10 99 -2 8 -6 49 -9 90 -4 41 -9
91 -12 110 -2 19 -6 60 -8 90 -3 30 -7 79 -10 108 -3 28 -8 73 -10 100 -7 72
-20 186 -22 195 -1 4 -2 27 -3 52 -1 42 -3 45 -27 43 -14 -2 -26 -4 -28 -5z"/>
</g>
</svg>
